<svg xmlns="http://www.w3.org/2000/svg" viewBox="0 0 1600 900" role="img" aria-label="Batman logo">
  <title>Batman logo</title>
  <ellipse cx="800" cy="450" rx="760" ry="390" fill="none" stroke="#111" stroke-width="48"/>
  <path fill="#111" d="M172 450c0-205 282-370 628-370s628 165 628 370-282 370-628 370-628-165-628-370zm582-212c-18 58-65 118-154 145-53 16-105 16-136 9 35 45 36 114-4 172 76-5 132 17 188 74 35-65 69-105 97-139 28 34 62 74 97 139 56-57 112-79 188-74-40-58-39-127-4-172-31 7-83 7-136-9-89-27-136-87-154-145-43 44-62 44-82 0z"/>
</svg>
